<svg xmlns="http://www.w3.org/2000/svg" xmlns:xlink="http://www.w3.org/1999/xlink" xml:space="preserve" version="1.1" style="shape-rendering:geometricPrecision;text-rendering:geometricPrecision;image-rendering:optimizeQuality;" viewBox="0 0 1084 1355" x="0px" y="0px" fill-rule="evenodd" clip-rule="evenodd"><defs><style type="text/css">
   
    .fil0 {fill:white}
   
  </style></defs><g><path class="fil0" d="M77 224c19,-22 42,-47 68,-72 0,0 0,0 0,1 50,47 84,94 114,134 42,57 76,102 132,126 61,26 91,28 106,26 8,33 21,66 40,95 36,52 55,95 59,132 4,36 -8,67 -33,95l0 0c-163,-144 -433,-422 -486,-537zm-47 34c-35,37 -40,85 -12,121 114,148 326,354 474,474 103,84 376,206 508,173 -47,3 -95,-6 -139,-20 -93,-29 -185,-83 -262,-141 -23,-18 -46,-36 -68,-56 -79,-69 -155,-144 -228,-219 -59,-60 -116,-122 -170,-187 -35,-42 -78,-95 -103,-145zm127 -117c64,-58 142,-107 218,-82 -27,48 -15,113 30,154 24,21 52,32 81,34 -1,9 -11,92 7,178 -7,1 -30,1 -95,-27 -53,-22 -85,-66 -126,-121 -30,-40 -65,-87 -115,-136zm345 106c29,-2 58,-14 78,-37 19,-21 29,-48 29,-75 20,0 40,7 60,20 60,39 41,113 56,165 2,4 3,9 5,14 -44,18 -93,22 -94,22 -15,1 -27,15 -25,31 1,16 15,27 31,26 0,0 54,-5 106,-25 3,10 7,20 10,30 -42,16 -88,20 -89,20 -15,1 -27,15 -25,31 1,16 15,27 31,26 0,0 53,-5 104,-25 5,11 9,22 14,33 -42,17 -89,21 -89,21 -16,1 -28,15 -26,31 1,15 15,27 31,25 0,0 55,-4 107,-25 5,10 10,20 14,30 -42,17 -89,21 -89,21 -16,1 -28,15 -26,31 1,15 15,27 31,25 0,0 56,-4 109,-26 2,3 4,6 5,9 57,112 127,154 173,196 43,39 65,62 40,100 -103,82 -332,-25 -498,-169 29,-32 41,-66 37,-108 -4,-40 -24,-85 -61,-139 -20,-29 -33,-63 -40,-97 0,-1 -1,-1 -1,-2 -20,-88 -8,-177 -8,-177 0,-1 0,-1 0,-2z"/></g><text x="0" y="1099" fill="#000000" font-size="5px" font-weight="bold" font-family="'Helvetica Neue', Helvetica, Arial-Unicode, Arial, Sans-serif">Created by Halogenz</text><text x="0" y="1104" fill="#000000" font-size="5px" font-weight="bold" font-family="'Helvetica Neue', Helvetica, Arial-Unicode, Arial, Sans-serif">from the Noun Project</text></svg>